<svg width="153" height="54" viewBox="0 0 153 54" fill="none" xmlns="http://www.w3.org/2000/svg">
<g clip-path="url(#clip0_90_7)">
<path d="M18.0677 0H26.4307V39.1257C22.1408 39.9489 18.9909 40.2786 15.5695 40.2786C5.35958 40.2779 0.0375977 35.6131 0.0375977 26.6659C0.0375977 18.0484 5.68575 12.4502 14.4288 12.4502C15.7863 12.4502 16.8181 12.5596 18.0677 12.8889V0ZM18.0677 19.6946C17.0903 19.3656 16.2758 19.2558 15.2437 19.2558C11.0077 19.2558 8.56377 21.8906 8.56377 26.5009C8.56377 31.0021 10.8991 33.4719 15.1894 33.4719C16.1125 33.4719 16.8731 33.4174 18.0677 33.2527V19.6946Z" fill="#ACACAC"/>
<path d="M39.735 13.0536V32.6483C39.735 39.3997 39.246 42.6383 37.7801 45.4374C36.4222 48.1274 34.6299 49.8284 30.9373 51.6952L23.1714 47.9627C26.8643 46.2061 28.6563 44.6697 29.7966 42.3086C30.9916 39.8941 31.3721 37.0943 31.3721 29.7394V13.0536H39.735ZM31.3721 0.0449829H39.735V8.71739H31.3721V0.0449829ZM44.7866 14.9745C48.4798 13.2186 52.0095 12.4502 55.8653 12.4502C60.1555 12.4502 62.9793 13.6024 64.2286 15.853C64.9342 17.1154 65.1514 18.7619 65.1514 22.2752V39.4546C61.4038 40.0035 56.6795 40.388 53.2041 40.388C46.1988 40.388 43.0485 37.9172 43.0485 32.4288C43.0485 26.5002 47.2302 23.756 57.494 22.8775V21.0114C57.494 19.4747 56.7338 18.9262 54.6156 18.9262C51.5204 18.9262 48.0447 19.8043 44.7859 21.5061L44.7866 14.9745V14.9745ZM57.8748 28.4222C52.3353 28.9711 50.543 29.8492 50.543 32.0449C50.543 33.6911 51.5751 34.4595 53.8558 34.4595C55.1051 34.4595 56.2451 34.3501 57.8745 34.0756L57.8748 28.4222ZM69.2248 14.3708C74.1663 13.0536 78.2393 12.4502 82.3666 12.4502C86.6569 12.4502 89.7525 13.4378 91.5995 15.3591C93.3371 17.1699 93.8798 19.1457 93.8798 23.3729V39.9486H85.5165V23.7022C85.5165 20.464 84.4305 19.2559 81.4438 19.2559C80.3035 19.2559 79.2718 19.3656 77.5877 19.8596V39.9486H69.2248V14.3708ZM97.1309 44.5592C100.064 46.0963 102.996 46.8091 106.092 46.8091C111.576 46.8091 113.911 44.5592 113.911 39.1799V39.0152C112.282 39.8381 110.653 40.1678 108.481 40.1678C101.149 40.1678 96.4783 35.2827 96.4783 27.5441C96.4783 17.9379 103.376 12.5044 115.594 12.5044C119.178 12.5044 122.492 12.8882 126.51 13.7115L123.646 19.8086C121.42 19.3695 123.468 19.7498 121.785 19.5852V20.4637L121.894 24.0308L121.947 28.6417C122.002 29.794 122.002 30.9469 122.056 32.0994V34.4053C122.056 41.6504 121.459 45.0532 119.667 47.8526C117.061 51.9696 112.553 54 106.145 54C102.886 54 100.063 53.506 97.1302 52.3535L97.1309 44.5592V44.5592ZM113.749 19.3107H112.88C111.252 19.2559 109.351 19.6946 108.047 20.5178C106.038 21.6708 105.005 23.7567 105.005 26.7204C105.005 30.9472 107.07 33.3621 110.763 33.3621C111.903 33.3621 112.826 33.1422 113.912 32.8133V29.9044C113.912 28.9162 113.858 27.8178 113.858 26.6659L113.804 22.7691L113.75 19.9697L113.749 19.3107V19.3107ZM139.494 12.3401C147.857 12.3401 152.962 17.6646 152.962 26.2817C152.962 35.1191 147.64 40.6628 139.168 40.6628C130.804 40.6628 125.645 35.3383 125.645 26.776C125.646 17.8834 130.968 12.3401 139.494 12.3401V12.3401ZM139.33 33.8561C142.534 33.8561 144.435 31.1664 144.435 26.5009C144.435 21.8906 142.589 19.1461 139.385 19.1461C136.072 19.1461 134.171 21.8361 134.171 26.5009C134.172 31.1668 136.072 33.8561 139.33 33.8561V33.8561Z" fill="#ACACAC"/>
</g>
<defs>
<clipPath id="clip0_90_7">
<rect width="153" height="54" fill="white"/>
</clipPath>
</defs>
</svg>
