<svg width="153" height="44" viewBox="0 0 153 44" fill="none" xmlns="http://www.w3.org/2000/svg">
<path d="M0.995695 34.1378V17.3218H22.2555V16.3382H0.995695V0.997239H23.5997V0.013916H0V35.1211H23.7987V34.1378H0.995994H0.995695ZM42.9676 9.84774L34.1552 21.3044L25.5414 9.84804H24.2469L33.5575 22.0422L23.3504 35.1208H24.5454L34.1546 22.7791L43.8136 35.1208H45.0582L34.8018 22.0416L44.162 9.84744H42.9673L42.9676 9.84774ZM48.0459 43.7751V28.041H48.1454C48.7431 30.3355 49.9213 32.1794 51.6805 33.5726C53.4397 34.9656 55.68 35.6623 58.4018 35.6623C60.161 35.6623 61.7212 35.31 63.082 34.6052C64.4429 33.9005 65.5796 32.9417 66.4925 31.7288C67.4052 30.5158 68.1023 29.1064 68.5837 27.5C69.0649 25.894 69.3057 24.2057 69.3057 22.4359C69.3057 20.5344 69.0565 18.7806 68.5586 17.1746C68.0608 15.5682 67.3388 14.175 66.393 12.9951C65.4469 11.815 64.3018 10.8969 62.9574 10.2417C61.6133 9.58597 60.0946 9.2581 58.4018 9.2581C57.1073 9.2581 55.9042 9.44668 54.7922 9.82354C53.6803 10.2007 52.693 10.7331 51.8299 11.4216C50.9619 12.1154 50.2063 12.9361 49.5893 13.8554C48.9588 14.7897 48.4774 15.8141 48.1454 16.9287H48.0459V9.84774H47.0502V43.7751H48.0459V43.7751ZM58.4018 34.7277C55.282 34.7277 52.7757 33.6706 50.8839 31.5564C48.992 29.4422 48.0459 26.4016 48.0459 22.4353C48.0459 20.7962 48.2784 19.2392 48.7431 17.7642C49.2077 16.2892 49.8798 14.9943 50.7592 13.8799C51.639 12.7652 52.7261 11.8802 54.0204 11.2247C55.3149 10.569 56.7756 10.2411 58.4018 10.2411C60.0615 10.2411 61.5138 10.569 62.7584 11.2247C64.003 11.8802 65.0322 12.7735 65.8453 13.9044C66.6584 15.0353 67.2725 16.3302 67.6876 17.7887C68.1023 19.2474 68.3097 20.7962 68.3097 22.4353C68.3097 23.9106 68.1191 25.3776 67.7372 26.836C67.3556 28.2948 66.7663 29.606 65.9696 30.7699C65.1732 31.9333 64.1527 32.8838 62.9078 33.6216C61.6629 34.3591 60.161 34.7277 58.4018 34.7277V34.7277ZM74.7823 35.1211V20.8127C74.7823 19.436 74.9814 18.0918 75.38 16.7809C75.778 15.4697 76.3921 14.314 77.222 13.3145C78.0518 12.3146 79.1055 11.5278 80.3836 10.9541C81.6614 10.3804 83.18 10.1429 84.9392 10.2411V9.2578C83.4122 9.22534 82.0764 9.38884 80.9313 9.74947C79.7859 10.1101 78.7986 10.6018 77.9687 11.2247C77.1389 11.8474 76.4752 12.5767 75.9774 13.4127C75.4799 14.2475 75.1107 15.1505 74.8818 16.0924H74.7823V9.84774H73.7866V35.1214H74.7823V35.1211ZM86.1838 22.6811H107.593C107.659 20.9438 107.485 19.2722 107.07 17.6659C106.655 16.0596 105.991 14.6336 105.079 13.3882C104.166 12.1426 102.988 11.1427 101.544 10.3887C100.1 9.63467 98.382 9.2578 96.3906 9.2578C94.9631 9.2578 93.5691 9.55292 92.2082 10.1432C90.8473 10.7331 89.6523 11.5933 88.6235 12.7242C87.5946 13.8551 86.7647 15.2401 86.1342 16.8794C85.5037 18.5182 85.1881 20.3866 85.1881 22.4846C85.1881 24.3529 85.4039 26.0985 85.8354 27.7211C86.2669 29.3436 86.9306 30.7534 87.8268 31.9498C88.7233 33.1462 89.8767 34.0723 91.2872 34.7277C92.6977 35.3835 94.3989 35.6948 96.3906 35.662C99.3113 35.662 101.768 34.8505 103.759 33.2282C105.751 31.6054 106.929 29.3191 107.294 26.3689H106.299C105.867 29.1553 104.763 31.2451 102.988 32.638C101.212 34.0312 98.9796 34.7277 96.2908 34.7277C94.4652 34.7277 92.9218 34.4164 91.6604 33.7937C90.3994 33.171 89.3702 32.3184 88.5736 31.2368C87.7772 30.1549 87.1879 28.8847 86.8063 27.426C86.4244 25.9675 86.217 24.3857 86.1838 22.6811ZM106.597 21.6978H86.1841C86.2833 19.9277 86.6153 18.3379 87.1795 16.9284C87.744 15.5187 88.4824 14.314 89.3953 13.3145C90.308 12.3146 91.3703 11.5526 92.5817 11.0279C93.7932 10.5035 95.0961 10.2411 96.4901 10.2411C98.1498 10.2411 99.6099 10.5445 100.872 11.151C102.133 11.7574 103.187 12.5852 104.033 13.6341C104.879 14.6829 105.518 15.9041 105.95 17.297C106.381 18.6903 106.597 20.1573 106.597 21.6978ZM128.255 17.3218H129.251C129.251 14.5026 128.421 12.4539 126.762 11.1755C125.102 9.89702 122.845 9.2578 119.99 9.2578C118.397 9.2578 117.053 9.45465 115.957 9.84804C114.862 10.2411 113.966 10.7493 113.269 11.372C112.572 11.9947 112.074 12.6832 111.775 13.4372C111.476 14.1912 111.327 14.9125 111.327 15.6007C111.327 16.9774 111.576 18.0755 112.074 18.8951C112.572 19.7146 113.352 20.3538 114.414 20.8127C115.144 21.1403 115.974 21.4354 116.903 21.6981C117.833 21.9601 118.911 22.2387 120.14 22.5336C121.235 22.7962 122.314 23.0583 123.376 23.3203C124.438 23.5827 125.376 23.9351 126.189 24.3774C127.002 24.8201 127.666 25.3855 128.181 26.0741C128.695 26.7623 128.952 27.6638 128.952 28.7782C128.952 29.8601 128.695 30.7779 128.181 31.5316C127.67 32.2817 126.999 32.9114 126.214 33.3758C125.417 33.8509 124.529 34.195 123.55 34.4081C122.571 34.6212 121.617 34.7277 120.687 34.7277C117.667 34.7277 115.352 34.064 113.742 32.7366C112.132 31.4088 111.327 29.3191 111.327 26.4671H110.331C110.331 29.647 111.203 31.9743 112.945 33.4496C114.688 34.9246 117.269 35.662 120.687 35.662C121.783 35.662 122.886 35.539 123.998 35.2931C125.11 35.0473 126.106 34.646 126.986 34.0885C127.858 33.5389 128.59 32.7988 129.126 31.9253C129.674 31.04 129.948 29.9584 129.948 28.6799C129.948 27.467 129.707 26.4837 129.226 25.7297C128.745 24.9759 128.114 24.3529 127.334 23.8613C126.554 23.3696 125.675 22.9845 124.695 22.7059C123.711 22.4257 122.723 22.1551 121.733 21.8943C120.514 21.5786 119.294 21.2672 118.073 20.9603C117.028 20.6979 116.057 20.3866 115.161 20.026C114.298 19.6653 113.609 19.1492 113.094 18.4772C112.58 17.8052 112.323 16.8464 112.323 15.6007C112.323 15.3714 112.389 14.9615 112.522 14.3716C112.655 13.7813 112.97 13.1831 113.468 12.5767C113.966 11.9705 114.729 11.4296 115.758 10.9541C116.787 10.479 118.198 10.2411 119.99 10.2411C121.218 10.2411 122.338 10.3725 123.351 10.6345C124.363 10.8969 125.235 11.3148 125.965 11.8885C126.695 12.4622 127.259 13.1914 127.658 14.0764C128.056 14.9618 128.255 16.0434 128.255 17.3218V17.3218ZM151.307 17.3218H152.303C152.303 14.5026 151.473 12.4539 149.814 11.1755C148.154 9.89702 145.897 9.2578 143.042 9.2578C141.449 9.2578 140.105 9.45465 139.009 9.84804C137.914 10.2411 137.018 10.7493 136.321 11.372C135.624 11.9947 135.126 12.6832 134.827 13.4372C134.528 14.1912 134.379 14.9125 134.379 15.6007C134.379 16.9774 134.628 18.0755 135.126 18.8951C135.624 19.7146 136.404 20.3538 137.466 20.8127C138.196 21.1403 139.026 21.4354 139.955 21.6981C140.885 21.9601 141.963 22.2387 143.192 22.5336C144.287 22.7962 145.366 23.0583 146.428 23.3203C147.49 23.5827 148.428 23.9351 149.241 24.3774C150.054 24.8201 150.718 25.3855 151.232 26.0741C151.747 26.7623 152.004 27.6638 152.004 28.7782C152.004 29.8601 151.747 30.7779 151.232 31.5316C150.722 32.2817 150.051 32.9114 149.266 33.3758C148.469 33.8509 147.581 34.195 146.602 34.4081C145.623 34.6212 144.669 34.7277 143.739 34.7277C140.719 34.7277 138.404 34.064 136.794 32.7366C135.184 31.4088 134.379 29.3191 134.379 26.4671H133.383C133.383 29.647 134.255 31.9743 135.997 33.4496C137.74 34.9246 140.32 35.662 143.739 35.662C144.835 35.662 145.938 35.539 147.05 35.2931C148.162 35.0473 149.158 34.646 150.038 34.0885C150.91 33.5389 151.642 32.7988 152.179 31.9253C152.726 31.04 153 29.9584 153 28.6799C153 27.467 152.759 26.4837 152.278 25.7297C151.797 24.9759 151.166 24.3529 150.386 23.8613C149.606 23.3696 148.726 22.9845 147.747 22.7059C146.763 22.4257 145.775 22.1551 144.785 21.8943C143.566 21.5786 142.346 21.2672 141.125 20.9603C140.08 20.6979 139.109 20.3866 138.213 20.026C137.35 19.6653 136.661 19.1492 136.147 18.4772C135.632 17.8052 135.375 16.8464 135.375 15.6007C135.375 15.3714 135.441 14.9615 135.574 14.3716C135.707 13.7813 136.022 13.1831 136.52 12.5767C137.018 11.9705 137.781 11.4296 138.81 10.9541C139.839 10.479 141.25 10.2411 143.042 10.2411C144.271 10.2411 145.391 10.3725 146.403 10.6345C147.416 10.8969 148.287 11.3148 149.017 11.8885C149.747 12.4622 150.311 13.1914 150.71 14.0764C151.108 14.9618 151.307 16.0434 151.307 17.3218H151.307Z" fill="#ACACAC"/>
</svg>
