<svg width="32" height="32" viewBox="0 0 32 32" fill="none" xmlns="http://www.w3.org/2000/svg">
<rect width="32" height="32" rx="2.5" fill="white"/>
<rect width="32" height="32" fill="#026ACE"/>
<path d="M3.93 22V14.395H6.195V22H3.93ZM3.84 13.15V11.035H6.27V13.15H3.84ZM8.04621 22V16.375C8.04621 16.055 8.03621 15.73 8.01621 15.4C7.99621 15.06 7.96621 14.725 7.92621 14.395H10.1012L10.2662 15.805H10.0862C10.3062 15.325 10.6312 14.945 11.0612 14.665C11.4912 14.385 12.0012 14.245 12.5912 14.245C13.1712 14.245 13.6562 14.385 14.0462 14.665C14.4462 14.935 14.7312 15.36 14.9012 15.94H14.6612C14.8812 15.42 15.2312 15.01 15.7112 14.71C16.1912 14.4 16.7362 14.245 17.3462 14.245C18.2062 14.245 18.8462 14.5 19.2662 15.01C19.6862 15.52 19.8962 16.32 19.8962 17.41V22H17.6312V17.485C17.6312 16.955 17.5462 16.575 17.3762 16.345C17.2062 16.115 16.9312 16 16.5512 16C16.1012 16 15.7462 16.16 15.4862 16.48C15.2262 16.8 15.0962 17.24 15.0962 17.8V22H12.8312V17.485C12.8312 16.955 12.7462 16.575 12.5762 16.345C12.4062 16.115 12.1312 16 11.7512 16C11.3012 16 10.9462 16.16 10.6862 16.48C10.4362 16.8 10.3112 17.24 10.3112 17.8V22H8.04621ZM25.3132 22.165C24.5032 22.165 23.7982 22.005 23.1982 21.685C22.6082 21.355 22.1482 20.895 21.8182 20.305C21.4982 19.715 21.3382 19.01 21.3382 18.19C21.3382 17.38 21.4982 16.68 21.8182 16.09C22.1482 15.5 22.6082 15.045 23.1982 14.725C23.7982 14.405 24.5032 14.245 25.3132 14.245C26.1232 14.245 26.8282 14.405 27.4282 14.725C28.0282 15.045 28.4882 15.5 28.8082 16.09C29.1382 16.68 29.3032 17.38 29.3032 18.19C29.3032 19.01 29.1382 19.715 28.8082 20.305C28.4882 20.895 28.0282 21.355 27.4282 21.685C26.8282 22.005 26.1232 22.165 25.3132 22.165ZM25.3132 20.455C25.8332 20.455 26.2432 20.27 26.5432 19.9C26.8532 19.53 27.0082 18.96 27.0082 18.19C27.0082 17.42 26.8532 16.855 26.5432 16.495C26.2432 16.135 25.8332 15.955 25.3132 15.955C24.7932 15.955 24.3782 16.135 24.0682 16.495C23.7682 16.855 23.6182 17.42 23.6182 18.19C23.6182 18.96 23.7682 19.53 24.0682 19.9C24.3782 20.27 24.7932 20.455 25.3132 20.455Z" fill="white"/>
</svg>
