<svg width="32" height="31" viewBox="0 0 32 31" fill="none" xmlns="http://www.w3.org/2000/svg">
<path d="M15.9381 0C7.13687 0 0 7.10592 0 15.8718C0 22.8845 4.56675 28.8338 10.8995 30.9326C11.696 31.0794 11.9885 30.5882 11.9885 30.169C11.9885 29.7906 11.9736 28.5402 11.9669 27.214C7.53275 28.1741 6.59712 25.3413 6.59712 25.3413C5.87212 23.5067 4.8275 23.019 4.8275 23.019C3.3815 22.0339 4.9365 22.054 4.9365 22.054C6.537 22.1661 7.37975 23.6897 7.37975 23.6897C8.80125 26.1162 11.1082 25.4146 12.0177 25.0092C12.1607 23.9832 12.5739 23.2832 13.0296 22.8868C9.48962 22.4854 5.76812 21.1244 5.76812 15.0429C5.76812 13.3101 6.39075 11.8941 7.41037 10.7827C7.24487 10.3828 6.69937 8.76859 7.56475 6.58236C7.56475 6.58236 8.90312 6.15576 11.9489 8.2093C13.2201 7.85752 14.5836 7.68126 15.9381 7.67529C17.2926 7.68126 18.6571 7.85752 19.9309 8.2093C22.973 6.15576 24.3095 6.58236 24.3095 6.58236C25.177 8.76859 24.6312 10.3828 24.4657 10.7827C25.4876 11.8941 26.106 13.31 26.106 15.0429C26.106 21.1389 22.3775 22.4813 18.8285 22.8741C19.4001 23.3667 19.9095 24.3326 19.9095 25.8133C19.9095 27.937 19.891 29.6462 19.891 30.169C19.891 30.5914 20.1779 31.0863 20.9859 30.9304C27.3151 28.8293 31.8761 22.8821 31.8761 15.8718C31.8761 7.10592 24.7402 0 15.9381 0Z" fill="#ACACAC"/>
<path d="M5.96936 22.6097C5.93436 22.6885 5.80961 22.7122 5.69624 22.6581C5.58061 22.6064 5.51561 22.4988 5.55311 22.4196C5.58749 22.3385 5.71224 22.3158 5.82761 22.3703C5.94349 22.422 6.00949 22.5306 5.96936 22.6097V22.6097ZM6.75336 23.3063C6.67736 23.3765 6.52874 23.3439 6.42786 23.233C6.32361 23.1223 6.30411 22.9744 6.38124 22.9031C6.45961 22.833 6.60374 22.8658 6.70824 22.9766C6.81249 23.0885 6.83274 23.2355 6.75324 23.3064L6.75336 23.3063ZM7.29124 24.1976C7.19349 24.2652 7.03374 24.2018 6.93511 24.0607C6.83749 23.9196 6.83749 23.7503 6.93724 23.6825C7.03624 23.6146 7.19349 23.6756 7.29349 23.8157C7.39099 23.9592 7.39099 24.1285 7.29111 24.1977L7.29124 24.1976ZM8.20074 25.2299C8.11336 25.3257 7.92736 25.3001 7.79111 25.1691C7.65186 25.0412 7.61299 24.8596 7.70061 24.7636C7.78899 24.6675 7.97611 24.6945 8.11336 24.8243C8.25174 24.9521 8.29399 25.135 8.20086 25.2299H8.20074ZM9.37624 25.5784C9.33786 25.7027 9.15861 25.7592 8.97811 25.7064C8.79786 25.652 8.67986 25.5064 8.71624 25.3808C8.75374 25.2557 8.93374 25.1968 9.11561 25.2533C9.29561 25.3074 9.41386 25.452 9.37636 25.5784H9.37624ZM10.7142 25.7262C10.7187 25.8571 10.5656 25.9657 10.3761 25.9681C10.1855 25.9722 10.0314 25.8662 10.0294 25.7375C10.0294 25.6053 10.179 25.4978 10.3695 25.4947C10.559 25.4909 10.7142 25.5961 10.7142 25.7262V25.7262ZM12.0285 25.676C12.0512 25.8037 11.9195 25.9349 11.7314 25.9698C11.5464 26.0034 11.3751 25.9246 11.3515 25.798C11.3285 25.6671 11.4627 25.536 11.6474 25.502C11.8359 25.4694 12.0045 25.5462 12.0285 25.676" fill="#ACACAC"/>
</svg>
