<svg width="23" height="22" viewBox="0 0 23 22" fill="none" xmlns="http://www.w3.org/2000/svg">
<path d="M11.4555 0C5.12963 0 0 5.04291 0 11.2638C0 16.2406 3.28235 20.4627 7.83401 21.9521C8.4065 22.0564 8.61673 21.7078 8.61673 21.4103C8.61673 21.1417 8.60604 20.2543 8.60119 19.3131C5.41416 19.9945 4.74168 17.9842 4.74168 17.9842C4.22059 16.6822 3.46977 16.3361 3.46977 16.3361C2.43045 15.6369 3.54811 15.6513 3.54811 15.6513C4.69847 15.7308 5.30419 16.8121 5.30419 16.8121C6.3259 18.5341 7.98405 18.0362 8.63776 17.7485C8.74054 17.0204 9.03747 16.5235 9.36504 16.2423C6.82067 15.9574 4.14584 14.9915 4.14584 10.6756C4.14584 9.44588 4.59335 8.44101 5.32621 7.65222C5.20725 7.36847 4.81518 6.22287 5.43716 4.67135C5.43716 4.67135 6.39912 4.36861 8.58825 5.82596C9.50196 5.57631 10.482 5.45122 11.4555 5.44698C12.4291 5.45122 13.4098 5.57631 14.3253 5.82596C16.5118 4.36861 17.4725 4.67135 17.4725 4.67135C18.096 6.22287 17.7037 7.36847 17.5848 7.65222C18.3192 8.44101 18.7637 9.44579 18.7637 10.6756C18.7637 15.0018 16.0838 15.9544 13.533 16.2332C13.9438 16.5828 14.31 17.2683 14.31 18.3191C14.31 19.8262 14.2967 21.0392 14.2967 21.4103C14.2967 21.71 14.5028 22.0612 15.0836 21.9506C19.6327 20.4595 22.911 16.2389 22.911 11.2638C22.911 5.04291 17.7821 0 11.4555 0Z" fill="#ACACAC"/>
<path d="M4.29071 16.0455C4.26555 16.1014 4.17589 16.1182 4.0944 16.0799C4.01129 16.0431 3.96457 15.9668 3.99153 15.9106C4.01624 15.853 4.1059 15.8369 4.18882 15.8756C4.27211 15.9123 4.31955 15.9893 4.29071 16.0455ZM4.85421 16.5398C4.79958 16.5897 4.69276 16.5665 4.62025 16.4878C4.54533 16.4093 4.53131 16.3043 4.58674 16.2537C4.64308 16.204 4.74667 16.2272 4.82177 16.3058C4.8967 16.3853 4.91126 16.4896 4.85412 16.5399L4.85421 16.5398ZM5.24081 17.1724C5.17055 17.2203 5.05573 17.1754 4.98484 17.0752C4.91467 16.9751 4.91467 16.855 4.98637 16.8068C5.05752 16.7587 5.17055 16.802 5.24242 16.9013C5.3125 17.0032 5.3125 17.1233 5.24072 17.1725L5.24081 17.1724ZM5.89451 17.905C5.83171 17.973 5.69802 17.9548 5.60009 17.8619C5.50001 17.7711 5.47206 17.6422 5.53504 17.5741C5.59856 17.5059 5.73306 17.525 5.83171 17.6172C5.93117 17.7078 5.96153 17.8377 5.8946 17.905H5.89451ZM6.7394 18.1523C6.71182 18.2405 6.58298 18.2806 6.45325 18.2431C6.32369 18.2045 6.23888 18.1012 6.26503 18.012C6.29198 17.9233 6.42135 17.8815 6.55208 17.9216C6.68145 17.96 6.76644 18.0626 6.73949 18.1523H6.7394ZM7.70109 18.2572C7.70432 18.3501 7.59426 18.4272 7.45806 18.4288C7.32105 18.4317 7.21027 18.3566 7.20883 18.2652C7.20883 18.1714 7.31638 18.0951 7.4533 18.0929C7.5895 18.0902 7.70109 18.1649 7.70109 18.2572ZM8.64571 18.2216C8.66206 18.3122 8.56736 18.4053 8.43215 18.4301C8.29918 18.4539 8.17609 18.398 8.15911 18.3082C8.14258 18.2152 8.23907 18.1222 8.37177 18.0981C8.50726 18.0749 8.62846 18.1294 8.64571 18.2216Z" fill="#ACACAC"/>
</svg>
