<svg width="181" height="19" viewBox="0 0 181 19" fill="none" xmlns="http://www.w3.org/2000/svg">
<path d="M0.296 14V1.31H3.104V14H0.296ZM8.14091 14L4.19891 4.874H7.06091L9.67091 11.498H9.07691L11.7769 4.874H14.4589L10.4809 14H8.14091ZM18.7792 14.198C17.9872 14.198 17.2912 14.006 16.6912 13.622C16.0912 13.238 15.6232 12.692 15.2872 11.984C14.9512 11.276 14.7832 10.424 14.7832 9.428C14.7832 8.444 14.9512 7.598 15.2872 6.89C15.6232 6.182 16.0912 5.642 16.6912 5.27C17.2912 4.886 17.9872 4.694 18.7792 4.694C19.5112 4.694 20.1652 4.874 20.7412 5.234C21.3292 5.582 21.7132 6.056 21.8932 6.656H21.6952L21.9112 4.874H24.5212C24.4852 5.27 24.4492 5.672 24.4132 6.08C24.3892 6.476 24.3772 6.866 24.3772 7.25V14H21.6772L21.6592 12.29H21.8752C21.6832 12.866 21.2992 13.328 20.7232 13.676C20.1472 14.024 19.4992 14.198 18.7792 14.198ZM19.6072 12.146C20.2312 12.146 20.7352 11.924 21.1192 11.48C21.5032 11.036 21.6952 10.352 21.6952 9.428C21.6952 8.504 21.5032 7.826 21.1192 7.394C20.7352 6.962 20.2312 6.746 19.6072 6.746C18.9832 6.746 18.4792 6.962 18.0952 7.394C17.7112 7.826 17.5192 8.504 17.5192 9.428C17.5192 10.352 17.7052 11.036 18.0772 11.48C18.4612 11.924 18.9712 12.146 19.6072 12.146ZM26.6062 14V7.25C26.6062 6.866 26.5942 6.476 26.5702 6.08C26.5462 5.672 26.5102 5.27 26.4622 4.874H29.0722L29.2702 6.566H29.0542C29.3542 5.966 29.7802 5.504 30.3322 5.18C30.8842 4.856 31.5262 4.694 32.2582 4.694C33.3262 4.694 34.1242 5.006 34.6522 5.63C35.1922 6.242 35.4622 7.196 35.4622 8.492V14H32.7442V8.618C32.7442 7.958 32.6242 7.49 32.3842 7.214C32.1442 6.938 31.7842 6.8 31.3042 6.8C30.7042 6.8 30.2242 6.992 29.8642 7.376C29.5042 7.748 29.3242 8.252 29.3242 8.888V14H26.6062ZM42.9234 14V1.31H45.3894L49.7994 11.21H49.2234L53.6334 1.31H56.0814V14H53.5254V5.378H54.2454L50.3034 14H48.6834L44.7234 5.378H45.4794V14H42.9234ZM58.5105 14V4.874H61.2285V14H58.5105ZM58.4025 3.38V0.842H61.3185V3.38H58.4025ZM63.432 14V7.286C63.432 6.89 63.42 6.488 63.396 6.08C63.384 5.672 63.354 5.27 63.306 4.874H65.916L66.222 7.538H65.808C65.928 6.89 66.12 6.356 66.384 5.936C66.66 5.516 66.996 5.204 67.392 5C67.8 4.796 68.262 4.694 68.778 4.694C69.006 4.694 69.186 4.706 69.318 4.73C69.45 4.742 69.582 4.772 69.714 4.82L69.696 7.214C69.444 7.106 69.228 7.04 69.048 7.016C68.88 6.98 68.664 6.962 68.4 6.962C67.896 6.962 67.476 7.058 67.14 7.25C66.816 7.442 66.57 7.724 66.402 8.096C66.246 8.468 66.168 8.918 66.168 9.446V14H63.432ZM74.3085 14.198C73.5165 14.198 72.8205 14.006 72.2205 13.622C71.6205 13.238 71.1525 12.692 70.8165 11.984C70.4805 11.276 70.3125 10.424 70.3125 9.428C70.3125 8.444 70.4805 7.598 70.8165 6.89C71.1525 6.182 71.6205 5.642 72.2205 5.27C72.8205 4.886 73.5165 4.694 74.3085 4.694C75.0405 4.694 75.6945 4.874 76.2705 5.234C76.8585 5.582 77.2425 6.056 77.4225 6.656H77.2245L77.4405 4.874H80.0505C80.0145 5.27 79.9785 5.672 79.9425 6.08C79.9185 6.476 79.9065 6.866 79.9065 7.25V14H77.2065L77.1885 12.29H77.4045C77.2125 12.866 76.8285 13.328 76.2525 13.676C75.6765 14.024 75.0285 14.198 74.3085 14.198ZM75.1365 12.146C75.7605 12.146 76.2645 11.924 76.6485 11.48C77.0325 11.036 77.2245 10.352 77.2245 9.428C77.2245 8.504 77.0325 7.826 76.6485 7.394C76.2645 6.962 75.7605 6.746 75.1365 6.746C74.5125 6.746 74.0085 6.962 73.6245 7.394C73.2405 7.826 73.0485 8.504 73.0485 9.428C73.0485 10.352 73.2345 11.036 73.6065 11.48C73.9905 11.924 74.5005 12.146 75.1365 12.146ZM82.1355 14V7.25C82.1355 6.866 82.1235 6.476 82.0995 6.08C82.0755 5.672 82.0395 5.27 81.9915 4.874H84.6015L84.7995 6.566H84.5835C84.8835 5.966 85.3095 5.504 85.8615 5.18C86.4135 4.856 87.0555 4.694 87.7875 4.694C88.8555 4.694 89.6535 5.006 90.1815 5.63C90.7215 6.242 90.9915 7.196 90.9915 8.492V14H88.2735V8.618C88.2735 7.958 88.1535 7.49 87.9135 7.214C87.6735 6.938 87.3135 6.8 86.8335 6.8C86.2335 6.8 85.7535 6.992 85.3935 7.376C85.0335 7.748 84.8535 8.252 84.8535 8.888V14H82.1355ZM96.7566 14.198C95.9646 14.198 95.2626 14.006 94.6506 13.622C94.0506 13.238 93.5766 12.692 93.2286 11.984C92.8926 11.276 92.7246 10.424 92.7246 9.428C92.7246 8.444 92.8926 7.598 93.2286 6.89C93.5646 6.182 94.0386 5.642 94.6506 5.27C95.2626 4.886 95.9646 4.694 96.7566 4.694C97.4766 4.694 98.1186 4.868 98.6826 5.216C99.2586 5.552 99.6426 6.008 99.8346 6.584H99.6006V0.751999H102.319V14H99.6366V12.218H99.8706C99.6786 12.818 99.2946 13.298 98.7186 13.658C98.1426 14.018 97.4886 14.198 96.7566 14.198ZM97.5666 12.146C98.1906 12.146 98.6946 11.924 99.0786 11.48C99.4626 11.036 99.6546 10.352 99.6546 9.428C99.6546 8.504 99.4626 7.826 99.0786 7.394C98.6946 6.962 98.1906 6.746 97.5666 6.746C96.9426 6.746 96.4326 6.962 96.0366 7.394C95.6526 7.826 95.4606 8.504 95.4606 9.428C95.4606 10.352 95.6526 11.036 96.0366 11.48C96.4326 11.924 96.9426 12.146 97.5666 12.146ZM108.094 14.198C107.302 14.198 106.606 14.006 106.006 13.622C105.406 13.238 104.938 12.692 104.602 11.984C104.266 11.276 104.098 10.424 104.098 9.428C104.098 8.444 104.266 7.598 104.602 6.89C104.938 6.182 105.406 5.642 106.006 5.27C106.606 4.886 107.302 4.694 108.094 4.694C108.826 4.694 109.48 4.874 110.056 5.234C110.644 5.582 111.028 6.056 111.208 6.656H111.01L111.226 4.874H113.836C113.8 5.27 113.764 5.672 113.728 6.08C113.704 6.476 113.692 6.866 113.692 7.25V14H110.992L110.974 12.29H111.19C110.998 12.866 110.614 13.328 110.038 13.676C109.462 14.024 108.814 14.198 108.094 14.198ZM108.922 12.146C109.546 12.146 110.05 11.924 110.434 11.48C110.818 11.036 111.01 10.352 111.01 9.428C111.01 8.504 110.818 7.826 110.434 7.394C110.05 6.962 109.546 6.746 108.922 6.746C108.298 6.746 107.794 6.962 107.41 7.394C107.026 7.826 106.834 8.504 106.834 9.428C106.834 10.352 107.02 11.036 107.392 11.48C107.776 11.924 108.286 12.146 108.922 12.146ZM120.803 7.646C120.803 6.326 121.049 5.18 121.541 4.208C122.045 3.224 122.765 2.462 123.701 1.922C124.637 1.382 125.747 1.112 127.031 1.112C128.315 1.112 129.425 1.382 130.361 1.922C131.297 2.462 132.017 3.224 132.521 4.208C133.037 5.18 133.295 6.32 133.295 7.628C133.295 8.96 133.037 10.118 132.521 11.102C132.017 12.074 131.297 12.836 130.361 13.388C129.425 13.928 128.315 14.198 127.031 14.198C125.747 14.198 124.637 13.928 123.701 13.388C122.777 12.836 122.063 12.068 121.559 11.084C121.055 10.1 120.803 8.954 120.803 7.646ZM123.737 7.646C123.737 8.954 124.007 9.98 124.547 10.724C125.099 11.456 125.927 11.822 127.031 11.822C128.111 11.822 128.933 11.456 129.497 10.724C130.061 9.98 130.343 8.954 130.343 7.646C130.343 6.326 130.061 5.306 129.497 4.586C128.945 3.854 128.123 3.488 127.031 3.488C125.927 3.488 125.099 3.854 124.547 4.586C124.007 5.306 123.737 6.326 123.737 7.646ZM135.291 14V7.286C135.291 6.89 135.279 6.488 135.255 6.08C135.243 5.672 135.213 5.27 135.165 4.874H137.775L138.081 7.538H137.667C137.787 6.89 137.979 6.356 138.243 5.936C138.519 5.516 138.855 5.204 139.251 5C139.659 4.796 140.121 4.694 140.637 4.694C140.865 4.694 141.045 4.706 141.177 4.73C141.309 4.742 141.441 4.772 141.573 4.82L141.555 7.214C141.303 7.106 141.087 7.04 140.907 7.016C140.739 6.98 140.523 6.962 140.259 6.962C139.755 6.962 139.335 7.058 138.999 7.25C138.675 7.442 138.429 7.724 138.261 8.096C138.105 8.468 138.027 8.918 138.027 9.446V14H135.291ZM147.503 14.198C146.315 14.198 145.421 13.904 144.821 13.316C144.221 12.716 143.921 11.822 143.921 10.634V6.908H142.193V4.874H143.921V2.642L146.639 1.976V4.874H148.979V6.908H146.639V10.49C146.639 11.066 146.759 11.462 146.999 11.678C147.239 11.894 147.545 12.002 147.917 12.002C148.145 12.002 148.331 11.99 148.475 11.966C148.631 11.93 148.793 11.882 148.961 11.822V13.928C148.733 14.024 148.493 14.09 148.241 14.126C147.989 14.174 147.743 14.198 147.503 14.198ZM154.876 14.198C153.292 14.198 152.056 13.772 151.168 12.92C150.28 12.068 149.836 10.91 149.836 9.446C149.836 8.498 150.022 7.67 150.394 6.962C150.778 6.254 151.306 5.702 151.978 5.306C152.662 4.898 153.46 4.694 154.372 4.694C155.272 4.694 156.022 4.886 156.622 5.27C157.234 5.654 157.69 6.194 157.99 6.89C158.302 7.574 158.458 8.372 158.458 9.284V9.914H152.068V8.564H156.478L156.172 8.816C156.172 8.06 156.016 7.49 155.704 7.106C155.404 6.71 154.966 6.512 154.39 6.512C153.754 6.512 153.262 6.746 152.914 7.214C152.578 7.682 152.41 8.354 152.41 9.23V9.518C152.41 10.406 152.626 11.066 153.058 11.498C153.502 11.93 154.138 12.146 154.966 12.146C155.458 12.146 155.92 12.086 156.352 11.966C156.796 11.834 157.216 11.63 157.612 11.354L158.368 13.154C157.912 13.49 157.384 13.748 156.784 13.928C156.196 14.108 155.56 14.198 154.876 14.198ZM164.52 18.032C163.644 18.032 162.864 17.942 162.18 17.762C161.496 17.594 160.884 17.336 160.344 16.988L160.866 15.044C161.202 15.26 161.556 15.434 161.928 15.566C162.312 15.71 162.702 15.812 163.098 15.872C163.506 15.944 163.908 15.98 164.304 15.98C165.108 15.98 165.708 15.788 166.104 15.404C166.5 15.02 166.698 14.474 166.698 13.766V11.876H166.878C166.686 12.452 166.302 12.914 165.726 13.262C165.15 13.61 164.502 13.784 163.782 13.784C162.966 13.784 162.252 13.598 161.64 13.226C161.04 12.854 160.572 12.326 160.236 11.642C159.9 10.958 159.732 10.154 159.732 9.23C159.732 8.306 159.9 7.502 160.236 6.818C160.572 6.134 161.04 5.612 161.64 5.252C162.252 4.88 162.966 4.694 163.782 4.694C164.514 4.694 165.156 4.868 165.708 5.216C166.272 5.552 166.65 6.002 166.842 6.566L166.698 6.494L166.878 4.874H169.506C169.458 5.27 169.422 5.672 169.398 6.08C169.374 6.476 169.362 6.866 169.362 7.25V13.46C169.362 14.936 168.948 16.064 168.12 16.844C167.292 17.636 166.092 18.032 164.52 18.032ZM164.592 11.732C165.228 11.732 165.732 11.516 166.104 11.084C166.476 10.652 166.662 10.034 166.662 9.23C166.662 8.426 166.476 7.814 166.104 7.394C165.732 6.962 165.228 6.746 164.592 6.746C163.932 6.746 163.41 6.962 163.026 7.394C162.654 7.814 162.468 8.426 162.468 9.23C162.468 10.034 162.654 10.652 163.026 11.084C163.41 11.516 163.932 11.732 164.592 11.732ZM175.119 14.198C174.327 14.198 173.631 14.006 173.031 13.622C172.431 13.238 171.963 12.692 171.627 11.984C171.291 11.276 171.123 10.424 171.123 9.428C171.123 8.444 171.291 7.598 171.627 6.89C171.963 6.182 172.431 5.642 173.031 5.27C173.631 4.886 174.327 4.694 175.119 4.694C175.851 4.694 176.505 4.874 177.081 5.234C177.669 5.582 178.053 6.056 178.233 6.656H178.035L178.251 4.874H180.861C180.825 5.27 180.789 5.672 180.753 6.08C180.729 6.476 180.717 6.866 180.717 7.25V14H178.017L177.999 12.29H178.215C178.023 12.866 177.639 13.328 177.063 13.676C176.487 14.024 175.839 14.198 175.119 14.198ZM175.947 12.146C176.571 12.146 177.075 11.924 177.459 11.48C177.843 11.036 178.035 10.352 178.035 9.428C178.035 8.504 177.843 7.826 177.459 7.394C177.075 6.962 176.571 6.746 175.947 6.746C175.323 6.746 174.819 6.962 174.435 7.394C174.051 7.826 173.859 8.504 173.859 9.428C173.859 10.352 174.045 11.036 174.417 11.48C174.801 11.924 175.311 12.146 175.947 12.146Z" fill="#026ACE"/>
</svg>
