<svg width="32" height="31" viewBox="0 0 32 31" fill="none" xmlns="http://www.w3.org/2000/svg">
<path d="M0 2.27373C0 1.05292 1.05925 0.0619965 2.365 0.0619965H29.635C30.9413 0.0619965 32 1.05292 32 2.27373V28.7266C32 29.9478 30.9413 30.938 29.635 30.938H2.365C1.05938 30.938 0 29.9479 0 28.727V2.27337V2.27373Z" fill="#ACACAC"/>
<path d="M9.72456 25.9011V12.0006H4.93606V25.9011H9.72506H9.72456ZM7.33131 10.1031C9.00081 10.1031 10.0402 9.03569 10.0402 7.70175C10.0089 6.33742 9.00081 5.29982 7.36306 5.29982C5.72418 5.29982 4.65381 6.33742 4.65381 7.70163C4.65381 9.03557 5.69281 10.103 7.29993 10.103H7.33093L7.33131 10.1031ZM12.3751 25.9011H17.1632V18.1393C17.1632 17.7244 17.1944 17.3084 17.3209 17.0121C17.6669 16.1817 18.4548 15.3221 19.7779 15.3221C21.5102 15.3221 22.2036 16.5967 22.2036 18.4655V25.9011H26.9916V17.931C26.9916 13.6615 24.6296 11.6747 21.4792 11.6747C18.8963 11.6747 17.7619 13.0677 17.1317 14.0164H17.1636V12.0011H12.3753C12.4378 13.3051 12.3749 25.9016 12.3749 25.9016L12.3751 25.9011Z" fill="white"/>
</svg>
