<svg width="23" height="22" viewBox="0 0 23 22" fill="none" xmlns="http://www.w3.org/2000/svg">
<path d="M0 1.61356C0 0.747184 0.761336 0.0439453 1.69984 0.0439453H21.3002C22.239 0.0439453 23 0.747184 23 1.61356V20.3866C23 21.2532 22.239 21.9559 21.3002 21.9559H1.69984C0.761426 21.9559 0 21.2533 0 20.3868V1.61331V1.61356Z" fill="#ACACAC"/>
<path d="M6.98933 18.3815V8.51665H3.54759V18.3815H6.98969H6.98933ZM5.26918 7.17C6.46913 7.17 7.21618 6.4125 7.21618 5.46583C7.19372 4.49759 6.46913 3.76123 5.292 3.76123C4.11406 3.76123 3.34473 4.49759 3.34473 5.46574C3.34473 6.41241 4.09151 7.16991 5.24663 7.16991H5.26891L5.26918 7.17ZM8.89437 18.3815H12.3358V12.8731C12.3358 12.5787 12.3583 12.2835 12.4492 12.0732C12.6979 11.4838 13.2642 10.8738 14.2152 10.8738C15.4602 10.8738 15.9586 11.7784 15.9586 13.1046V18.3815H19.4V12.7253C19.4 9.69536 17.7023 8.28537 15.438 8.28537C13.5815 8.28537 12.7662 9.27389 12.3132 9.94717H12.3361V8.51699H8.89455C8.93948 9.44243 8.89428 18.3818 8.89428 18.3818L8.89437 18.3815Z" fill="white"/>
</svg>
