<svg width="153" height="153" viewBox="0 0 153 153" fill="none" xmlns="http://www.w3.org/2000/svg">
<path d="M80.9124 18.7163L84.3939 25.2554C85.1767 26.4622 86.0246 27.5303 87.0234 28.525C89.9517 31.4168 92.6812 34.5031 95.1933 37.763C101.092 45.5088 105.071 54.1108 107.913 63.414C109.617 69.097 110.542 74.9268 110.612 80.8218C110.897 98.4457 104.855 113.579 92.6738 126.156C90.6924 128.15 88.5518 129.98 86.2733 131.627C85.0666 131.627 84.4958 130.701 83.9985 129.849C83.0927 128.269 82.4899 126.534 82.221 124.733C81.7929 122.601 81.5116 120.468 81.6502 118.267V117.272C81.5524 117.06 80.4884 19.2178 80.9124 18.7163V18.7163Z" fill="#C6C6C6"/>
<path d="M80.9124 18.5002C80.7697 18.2149 80.627 18.4309 80.4844 18.5695C80.5537 19.9964 80.0563 21.2684 79.2776 22.4832C78.4215 23.69 77.2882 24.6154 76.1507 25.6101C69.8317 31.0812 64.8581 37.6896 60.8751 45.0808C55.5753 55.0281 52.8438 65.6889 52.0693 76.9122C51.7146 80.9604 53.3494 95.2454 54.6254 99.3671C58.107 110.309 64.3607 119.478 72.4613 127.436C74.4507 129.352 76.5788 131.129 78.7803 132.837C79.4203 132.837 79.4896 132.267 79.6364 131.843C79.917 130.935 80.1309 130.009 80.2764 129.07L81.7033 118.414L80.9124 18.5002Z" fill="#ACACAC"/>
<path d="M84.394 135.956C84.5367 134.325 85.3194 132.972 86.1715 131.623C85.3153 131.268 84.6794 130.563 84.182 129.776C83.7531 129.031 83.3981 128.246 83.122 127.432C82.1273 124.447 81.9153 121.316 81.6299 118.267V116.42C81.2753 116.706 81.2019 119.119 81.2019 119.478C80.9944 122.701 80.5667 125.906 79.9218 129.07C79.7098 130.351 79.5671 131.627 78.7803 132.764C78.7803 132.907 78.7803 133.049 78.8496 133.261C80.1297 137.028 80.4803 140.865 80.6964 144.774V146.201C80.6964 147.905 80.6271 147.546 82.0417 148.117C82.6124 148.329 83.2484 148.402 83.8192 148.826C84.2472 148.826 84.3165 148.472 84.3165 148.186L84.1045 145.842V139.303C84.0352 138.162 84.2472 137.028 84.3899 135.96L84.394 135.956Z" fill="#ACACAC"/>
</svg>
