<svg width="199" height="57" viewBox="0 0 199 57" fill="none" xmlns="http://www.w3.org/2000/svg">
<path d="M183.082 20.2885C182.599 20.2885 182.128 20.3895 181.712 20.6277L168.541 28.3207C167.689 28.8176 167.17 29.7556 167.17 30.7536V46.1118C167.17 47.1091 167.689 48.0458 168.541 48.5439L171.981 50.5523C173.652 51.3853 174.268 51.3723 175.028 51.3723C177.503 51.3723 178.916 49.8537 178.916 47.2148V32.0544C178.916 31.8402 178.732 31.6869 178.524 31.6869H176.874C176.663 31.6869 176.483 31.8402 176.483 32.0544V47.2148C176.483 48.3843 175.278 49.5609 173.323 48.5722L169.743 46.451C169.617 46.3814 169.52 46.2584 169.52 46.1118V30.7532C169.52 30.6078 169.616 30.4596 169.743 30.3857L182.887 22.7214C182.946 22.6863 183.013 22.6678 183.082 22.6678C183.151 22.6678 183.219 22.6863 183.278 22.7214L196.421 30.3861C196.547 30.4623 196.645 30.6035 196.645 30.754V46.1122C196.645 46.2588 196.572 46.409 196.449 46.4797L183.278 54.1444C183.165 54.2124 183.01 54.2124 182.887 54.1444L179.503 52.1082C179.451 52.0799 179.394 52.0651 179.335 52.0651C179.277 52.0651 179.219 52.0799 179.167 52.1082C178.233 52.6436 178.058 52.7057 177.182 53.0131C176.966 53.0894 176.638 53.2077 177.294 53.5792L181.712 56.209C182.129 56.4521 182.601 56.5791 183.082 56.577C183.563 56.58 184.036 56.4531 184.452 56.2094L197.624 48.5443C198.476 48.0431 198.994 47.1095 198.994 46.1122V30.7536C198.994 29.7559 198.476 28.8196 197.624 28.3215L184.452 20.6285C184.04 20.3899 183.566 20.2888 183.082 20.2888L183.082 20.2885Z" fill="#C6C6C6"/>
<path d="M186.605 31.2627C182.855 31.2627 180.621 32.8772 180.621 35.5621C180.621 38.4742 182.838 39.2746 186.438 39.6346C190.744 40.0612 191.08 40.7007 191.08 41.5581C191.08 43.0452 189.908 43.6793 187.137 43.6793C183.656 43.6793 182.891 42.8003 182.635 41.049C182.605 40.8611 182.461 40.7094 182.271 40.7094H180.565C180.355 40.7094 180.174 40.8926 180.174 41.1056C180.174 43.3475 181.379 45.9986 187.137 45.9986C191.305 45.9986 193.709 44.344 193.709 41.4449C193.709 38.5713 191.767 37.7996 187.724 37.2591C183.639 36.7123 183.25 36.4446 183.25 35.4772C183.25 34.6784 183.58 33.6099 186.605 33.6099C189.308 33.6099 190.307 34.1996 190.716 36.0428C190.752 36.2158 190.903 36.3538 191.08 36.3538H192.786C192.891 36.3538 192.993 36.2885 193.065 36.2123C193.137 36.1309 193.187 36.0393 193.177 35.9296C192.913 32.7557 190.821 31.2627 186.605 31.2627V31.2627Z" fill="#C6C6C6"/>
<path d="M105.648 0.150573C105.501 0.150672 105.356 0.189555 105.228 0.263394C105.101 0.338583 104.996 0.445952 104.922 0.574922C104.849 0.703891 104.809 0.850013 104.809 0.998891V22.6361C104.809 22.8484 104.711 23.0386 104.529 23.1452C104.44 23.1977 104.339 23.2254 104.236 23.2254C104.133 23.2254 104.031 23.1977 103.942 23.1452L100.446 21.1089C100.191 20.9597 99.902 20.8811 99.6075 20.8811C99.3129 20.8811 99.0235 20.9597 98.7685 21.1089L84.8142 29.2544C84.2926 29.559 83.9754 30.1444 83.9754 30.7537V47.0451C83.9754 47.6536 84.293 48.211 84.8142 48.5157L98.7685 56.6616C99.0234 56.8112 99.3128 56.89 99.6075 56.89C99.9021 56.89 100.192 56.8112 100.446 56.6616L114.401 48.5157C114.656 48.367 114.868 48.1527 115.016 47.8944C115.163 47.6362 115.24 47.3432 115.24 47.0451V6.42962C115.239 6.12449 115.159 5.82494 115.007 5.56153C114.854 5.29813 114.636 5.08031 114.373 4.93032L106.067 0.235091C105.937 0.16158 105.793 0.148608 105.648 0.150573V0.150573ZM15.8813 20.4866C15.6154 20.4972 15.3651 20.5444 15.1265 20.6843L1.17176 28.8302C0.916138 28.9788 0.703908 29.193 0.556603 29.4513C0.409298 29.7096 0.33216 30.0027 0.333015 30.3008L0.360999 52.1649C0.360999 52.4687 0.516077 52.7514 0.780371 52.9C0.90708 52.977 1.05212 53.0177 1.19994 53.0177C1.34776 53.0177 1.4928 52.977 1.6195 52.9L9.89696 48.0919C10.4213 47.7766 10.7637 47.2287 10.7637 46.6209V36.4105C10.7637 35.8011 11.0805 35.2421 11.6028 34.9395L15.1261 32.8749C15.3808 32.7251 15.6706 32.6469 15.9652 32.6484C16.2528 32.6484 16.5482 32.7212 16.804 32.8749L20.3276 34.9395C20.5835 35.0878 20.7959 35.3021 20.9433 35.5605C21.0907 35.8189 21.1678 36.1121 21.1668 36.4105V46.6205C21.1668 47.2283 21.5127 47.7802 22.0335 48.0915L30.3109 52.9C30.4377 52.977 30.5827 53.0177 30.7305 53.0177C30.8783 53.0177 31.0234 52.977 31.1501 52.9C31.2776 52.8253 31.3835 52.7181 31.4572 52.589C31.5309 52.4599 31.5697 52.3135 31.5698 52.1645L31.597 30.3008C31.5987 30.0025 31.5219 29.7091 31.3745 29.4507C31.2271 29.1923 31.0145 28.9781 30.7583 28.8302L16.804 20.6843C16.568 20.5444 16.317 20.4976 16.0492 20.4866H15.8813ZM141.275 20.6843C140.983 20.6843 140.698 20.759 140.436 20.9108L126.482 29.0567C126.226 29.2053 126.014 29.4196 125.867 29.6779C125.719 29.9361 125.642 30.2291 125.643 30.5273V46.8187C125.643 47.4315 125.984 47.9866 126.509 48.2897L140.352 56.2657C140.863 56.5606 141.487 56.583 142.002 56.2932L150.391 51.5701C150.658 51.4207 150.838 51.1416 150.839 50.835C150.84 50.6857 150.802 50.5387 150.728 50.4094C150.654 50.28 150.548 50.173 150.419 50.0995L136.381 41.9536C136.118 41.8019 135.934 41.4949 135.934 41.1898V36.0991C135.934 35.7945 136.12 35.5154 136.381 35.3636L140.743 32.8179C140.871 32.7432 141.016 32.7039 141.163 32.7039C141.31 32.7039 141.455 32.7432 141.583 32.8179L145.945 35.3636C146.072 35.4379 146.179 35.545 146.252 35.6741C146.326 35.8031 146.365 35.9496 146.364 36.0987V40.1151C146.364 40.2641 146.403 40.4106 146.476 40.5397C146.55 40.6688 146.656 40.7759 146.784 40.8502C147.045 41.0031 147.362 41.0035 147.622 40.8502L155.984 35.9297C156.239 35.7804 156.451 35.5659 156.598 35.3077C156.746 35.0496 156.823 34.7568 156.823 34.4587V30.5277C156.823 29.9203 156.505 29.3617 155.984 29.0567L142.114 20.9108C141.859 20.7616 141.569 20.6836 141.275 20.6847V20.6843ZM99.5513 32.8466C99.6244 32.8466 99.7099 32.8647 99.7752 32.9028L104.557 35.7029C104.687 35.7787 104.781 35.9191 104.781 36.0704V41.6706C104.781 41.8227 104.688 41.9626 104.557 42.0385L99.7752 44.8386C99.7113 44.8755 99.639 44.8949 99.5655 44.8949C99.4919 44.8949 99.4197 44.8755 99.3558 44.8386L94.574 42.0385C94.4438 41.9623 94.3501 41.8227 94.3501 41.6706V36.0704C94.3501 35.9187 94.4442 35.7795 94.574 35.7029L99.3558 32.9032C99.4146 32.8662 99.4825 32.8467 99.5517 32.847V32.8466H99.5513Z" fill="#ACACAC"/>
<path d="M57.8002 20.5994C57.5095 20.5994 57.2218 20.6741 56.9614 20.8259L43.0071 28.9435C42.4851 29.2473 42.168 29.8338 42.168 30.4424V46.7338C42.168 47.3431 42.4855 47.8997 43.0071 48.2048L56.9614 56.3503C57.2162 56.5 57.5057 56.5788 57.8004 56.5788C58.0951 56.5788 58.3845 56.5 58.6393 56.3503L72.5937 48.2048C72.8491 48.0559 73.0612 47.8416 73.2085 47.5833C73.3558 47.325 73.433 47.0319 73.4324 46.7338V30.4424C73.4324 29.833 73.1152 29.2473 72.5937 28.9435L58.6393 20.8259C58.3842 20.6769 58.0947 20.5987 57.8002 20.5994ZM141.247 35.1376C141.191 35.1376 141.129 35.1376 141.079 35.1659L138.395 36.7497C138.345 36.7778 138.303 36.8188 138.273 36.8685C138.244 36.9182 138.228 36.9748 138.227 37.0327V40.1438C138.227 40.2609 138.294 40.3682 138.395 40.4268L141.079 41.9823C141.18 42.0413 141.287 42.0413 141.387 41.9823L144.071 40.4264C144.121 40.3981 144.163 40.3572 144.192 40.3076C144.222 40.2581 144.238 40.2016 144.239 40.1438V37.0324C144.238 36.9745 144.222 36.9181 144.192 36.8685C144.163 36.8189 144.121 36.778 144.071 36.7497L141.387 35.1655C141.337 35.136 141.303 35.1376 141.247 35.1376Z" fill="#C6C6C6"/>
</svg>
