<svg width="93" height="95" viewBox="0 0 93 95" fill="none" xmlns="http://www.w3.org/2000/svg">
<path d="M92.6395 56.8813C92.0819 55.2086 90.6211 54.0435 88.7321 53.7639C87.8413 53.6322 86.8212 53.6883 85.614 53.9348C83.5099 54.3648 81.9489 54.5285 80.8096 54.5602C85.1098 47.3693 88.6064 39.1692 90.6193 31.4501C93.8743 18.9686 92.1349 13.2825 90.1023 10.7106C84.7232 3.90291 76.8753 0.245775 67.4075 0.133874C62.3568 0.0727057 57.9229 1.06039 55.6099 1.77066C53.4564 1.3943 51.1408 1.18417 48.7112 1.14531C44.1567 1.07334 40.1327 2.05671 36.6942 4.07778C34.7906 3.44019 31.7354 2.54138 28.2072 1.96784C19.9092 0.618541 13.2212 1.66991 8.32923 5.09281C2.40557 9.23713 -0.34047 16.4377 0.167397 26.4944C0.328694 29.6874 2.13202 39.4024 4.97143 48.6157C6.60328 53.9114 8.3434 58.3091 10.1435 61.6877C12.6962 66.4786 15.4277 69.2999 18.4942 70.3131C20.2129 70.8802 23.3356 71.2774 26.6201 68.568C27.0364 69.0674 27.5919 69.5636 28.3289 70.0245C29.2651 70.6092 30.4098 71.0871 31.5531 71.3702C35.673 72.3903 39.5322 72.1352 42.8246 70.7053C42.8449 71.2853 42.8606 71.8394 42.8736 72.318C42.8954 73.0941 42.9172 73.8551 42.9459 74.5668C43.141 79.379 43.4716 83.1206 44.451 85.7386C44.5048 85.8826 44.5771 86.102 44.6533 86.3348C45.142 87.8166 45.959 90.2971 48.0377 92.2397C50.1901 94.2522 52.7937 94.8692 55.1783 94.8692C56.3742 94.8692 57.5153 94.7138 58.5161 94.5015C62.0836 93.7441 66.1352 92.5905 69.0662 88.457C71.8373 84.5495 73.1843 78.664 73.4281 69.3906C73.4597 69.1283 73.4888 68.8778 73.5168 68.6393L73.5749 68.1492L74.2277 68.2061L74.3959 68.2172C78.0294 68.3813 82.4724 67.6181 85.201 66.3627C87.357 65.3718 94.2663 61.7589 92.6395 56.8813" fill="#ACACAC"/>
<path d="M86.427 57.8298C75.623 60.0373 74.8801 56.4143 74.8801 56.4143C86.2872 39.6496 91.0559 18.3692 86.9411 13.1609C75.7142 -1.04632 56.2805 5.67282 55.9561 5.84697L55.8518 5.86568C53.7172 5.42671 51.3286 5.16548 48.6436 5.12195C43.7553 5.04279 40.0469 6.39137 37.2329 8.50491C37.2329 8.50491 2.56501 -5.64077 4.17761 26.2955C4.52055 33.0895 14.0095 77.703 25.3271 64.2276C29.4638 59.3 33.461 55.1337 33.461 55.1337C35.446 56.4399 37.8225 57.1062 40.3139 56.867L40.5075 56.7043C40.4472 57.316 40.4749 57.9144 40.5849 58.6228C37.6692 61.8493 38.5262 62.4156 32.6977 63.6041C26.7999 64.808 30.2645 66.9511 32.5266 67.5117C35.269 68.1906 41.6134 69.1528 45.9001 63.209L45.7294 63.8873C46.8715 64.7936 47.6736 69.7821 47.5392 74.3046C47.4048 78.8267 47.3151 81.9315 48.2149 84.3566C49.1155 86.7818 50.0124 92.2383 57.6748 90.6123C64.0769 89.2533 67.3947 85.7318 67.8564 79.8575C68.1838 75.6816 68.9252 76.299 68.9717 72.5652L69.5664 70.7978C70.2519 65.1369 69.6754 63.3105 73.6195 64.16L74.5786 64.2435C77.4812 64.3741 81.2811 63.7808 83.5113 62.7542C88.3132 60.5471 91.1613 56.8616 86.4263 57.8298H86.427" fill="#C6C6C6"/>
<path d="M39.2621 29.3337C38.2885 29.1995 37.4068 29.3237 36.9607 29.6583C36.7101 29.8465 36.6323 30.0645 36.6112 30.2146C36.5553 30.6122 36.8365 31.0518 37.0094 31.2785C37.4984 31.9204 38.2126 32.3616 38.9195 32.4587C39.022 32.4731 39.1241 32.4796 39.2254 32.4796C40.4043 32.4796 41.4763 31.5703 41.5708 30.8993C41.6888 30.0588 40.4569 29.4985 39.2621 29.3341V29.3337ZM71.5157 29.3604C71.4227 28.7016 70.2391 28.5137 69.1158 28.6685C67.994 28.8232 66.9064 29.3247 66.9972 29.985C67.0698 30.4985 68.006 31.375 69.114 31.375C69.2077 31.375 69.3022 31.3688 69.3974 31.3555C70.137 31.2541 70.6798 30.7888 70.9377 30.5208C71.33 30.112 71.5575 29.6565 71.5157 29.3604" fill="white"/>
<path d="M90.0218 57.579C89.6098 56.3452 88.2838 55.9483 86.0809 56.3988C79.54 57.7359 77.1976 56.8097 76.4285 56.2488C81.5126 48.5776 85.6951 39.3045 87.9514 30.6528C89.0202 26.5545 89.6105 22.7484 89.6589 19.6461C89.7123 16.2412 89.1267 13.7391 87.9191 12.2106C83.0504 6.04878 75.9047 2.74354 67.2549 2.65287C61.3084 2.58667 56.2842 4.09392 55.3102 4.51778C53.2591 4.0126 51.0232 3.70245 48.5888 3.66287C44.1248 3.59126 40.266 4.64983 37.0713 6.80763C35.6836 6.29598 32.0973 5.07657 27.7114 4.37673C20.129 3.16776 14.1036 4.08385 9.80379 7.10088C4.67317 10.7012 2.30457 17.1368 2.7634 26.2285C2.91779 29.2873 4.67753 38.6971 7.45445 47.7086C11.1098 59.5695 15.0834 66.284 19.264 67.6653C19.7533 67.8268 20.3175 67.9398 20.9398 67.9398C22.4649 67.9398 24.3347 67.259 26.2801 64.9426C28.6529 62.1233 31.1074 59.3724 33.6405 56.6935C35.284 57.5671 37.0895 58.055 38.9361 58.104C38.9397 58.1518 38.9444 58.1997 38.9488 58.2472C38.6309 58.6226 38.3196 59.0035 38.0151 59.3896C36.7357 60.9983 36.4694 61.3333 32.3509 62.1731C31.1793 62.4127 28.0678 63.0478 28.022 65.2081C27.9726 67.5685 31.7002 68.5598 32.1249 68.6648C33.6049 69.0318 35.0308 69.2128 36.3905 69.2128C39.6975 69.2128 42.6077 68.1363 44.9335 66.0533C44.8619 74.4679 45.2161 82.7594 46.2362 85.2857C47.0717 87.3539 49.1127 92.4081 55.5594 92.4078C56.5054 92.4078 57.5466 92.2988 58.692 92.0555C65.4204 90.6271 68.3422 87.6817 69.4724 81.1881C70.0773 77.7177 71.1152 69.4309 71.6034 64.9857C72.6337 65.3042 73.96 65.4499 75.3939 65.4495C78.3844 65.4495 81.8352 64.8202 83.9993 63.8253C86.4304 62.707 90.8174 59.9631 90.0218 57.579V57.579ZM73.9989 27.5418C73.9767 28.8541 73.7944 30.0454 73.6011 31.2889C73.3929 32.6263 73.1779 34.0091 73.1237 35.6876C73.0703 37.3212 73.2763 39.0195 73.4754 40.662C73.8779 43.9795 74.291 47.3949 72.6922 50.7649C72.4266 50.2988 72.19 49.8171 71.9838 49.3224C71.785 48.8453 71.3535 48.0789 70.7559 47.0181C68.4312 42.8889 62.9875 33.2193 65.7742 29.2736C66.6043 28.0992 68.711 26.8917 73.9989 27.5418V27.5418ZM67.5891 5.31009C75.3394 5.47956 81.4701 8.35123 85.8106 13.8448C89.1397 18.0586 85.4739 37.232 74.8613 53.7729C74.7546 53.6385 74.6473 53.5045 74.5394 53.371L74.405 53.2048C77.1474 48.719 76.6112 44.2807 76.1339 40.3458C75.9377 38.7309 75.7524 37.2057 75.7997 35.7729C75.8483 34.2545 76.0511 32.952 76.2472 31.6926C76.4881 30.1408 76.7333 28.5349 76.6657 26.6419C76.7162 26.4433 76.7366 26.2087 76.7101 25.9302C76.5375 24.115 74.445 18.6822 70.1801 13.765C67.8471 11.0754 64.4449 8.06553 59.7997 6.03547C61.7977 5.62528 64.53 5.2428 67.5891 5.31009V5.31009ZM24.2213 63.2471C22.078 65.7996 20.598 65.3103 20.1112 65.1498C16.9397 64.102 13.2597 57.4628 10.0152 46.9347C7.20778 37.8249 5.5672 28.6645 5.43715 26.0957C5.02737 17.9719 7.01561 12.3102 11.347 9.26767C18.3961 4.31665 29.9855 7.28006 34.6424 8.783C34.5756 8.84849 34.5058 8.90965 34.4397 8.97622C26.7977 16.6201 26.979 29.6798 26.9979 30.4783C26.9972 30.7863 27.0233 31.2224 27.0589 31.8222C27.1904 34.0188 27.4353 38.107 26.7814 42.7367C26.174 47.039 27.513 51.2499 30.4545 54.29C30.7564 54.6013 31.0737 54.8977 31.4052 55.178C30.096 56.5668 27.2504 59.6382 24.2213 63.2471V63.2471ZM32.3875 52.4553C30.0168 50.0049 28.94 46.5968 29.433 43.1037C30.1232 38.2132 29.8686 33.9537 29.7316 31.6653C29.7123 31.3451 29.6953 31.0644 29.6855 30.8431C30.8018 29.8626 35.9753 27.1173 39.6648 27.9545C41.3482 28.3363 42.3741 29.4719 42.8006 31.4249C45.0079 41.5367 43.0927 45.7512 41.5539 49.1382C41.2367 49.8358 40.937 50.4954 40.6813 51.1776L40.4829 51.7051C39.9808 53.0385 39.5137 54.2784 39.2241 55.4557C36.7037 55.4485 34.2519 54.3821 32.3875 52.4549V52.4553ZM32.7744 66.0922C32.0384 65.9101 31.3765 65.5938 30.9882 65.3315C31.3126 65.1804 31.8898 64.9746 32.8911 64.7702C37.7361 63.7825 38.4845 63.0852 40.1185 61.0303C40.4931 60.559 40.9178 60.025 41.5059 59.3745L41.5066 59.3737C42.3825 58.4023 42.7832 58.567 43.5098 58.8657C44.0986 59.1068 44.6723 59.8379 44.9048 60.6424C45.0148 61.0224 45.1384 61.7435 44.734 62.3048C41.3206 67.0385 36.3466 66.9777 32.7744 66.0922V66.0922ZM58.1311 89.4627C52.2038 90.7206 50.1051 87.7252 48.7221 84.3009C47.8295 82.0902 47.3907 72.1212 47.702 61.112C47.706 60.9656 47.685 60.8241 47.6443 60.691C47.6079 60.4281 47.5525 60.1682 47.4786 59.9131C47.0158 58.3112 45.8878 56.9713 44.5346 56.4157C43.9969 56.1952 43.0103 55.7904 41.8245 56.0908C42.0773 55.0589 42.5158 53.8934 42.9914 52.6316L43.1908 52.1009C43.4153 51.5025 43.6972 50.8825 43.9951 50.2262C45.6055 46.6828 47.811 41.8293 45.4174 30.8647C44.5208 26.7578 41.5266 24.7522 36.9878 25.2182C34.2668 25.497 31.7772 26.5844 30.5355 27.2079C30.2685 27.3418 30.0244 27.4713 29.7963 27.5972C30.1428 23.4594 31.4521 15.7263 36.3499 10.8336C39.4337 7.75358 43.5406 6.23229 48.5445 6.31433C58.4039 6.47408 64.7265 11.4856 68.2946 15.6619C71.3695 19.2604 73.0344 22.8855 73.6988 24.8407C68.7019 24.3373 65.3034 25.3142 63.5807 27.7538C59.8327 33.0603 65.6311 43.3596 68.4178 48.3095C68.9289 49.2166 69.37 50.0006 69.5087 50.3338C70.4162 52.5121 71.5911 53.9665 72.4488 55.0279C72.7118 55.3532 72.9668 55.6688 73.1608 55.9444C71.6474 56.3765 68.9289 57.375 69.1767 62.3659C68.9769 64.8702 67.5561 76.5951 66.8342 80.7376C65.8814 86.2104 63.8481 88.2487 58.1311 89.4631V89.4627ZM82.872 61.4204C81.3245 62.1317 78.7346 62.6653 76.2745 62.7801C73.5571 62.906 72.1738 62.4786 71.8483 62.2155C71.6957 59.1053 72.8644 58.7804 74.1013 58.4364C74.2957 58.3825 74.4853 58.3296 74.6684 58.2662C74.7821 58.358 74.9067 58.449 75.0433 58.5383C77.2274 59.966 81.1228 60.12 86.6226 58.9956L86.6829 58.9837C85.941 59.6706 84.6717 60.5924 82.872 61.4204Z" fill="white"/>
</svg>
