<svg width="94" height="95" viewBox="0 0 94 95" fill="none" xmlns="http://www.w3.org/2000/svg">
<path d="M46.5976 0.026825C22.7943 0.026825 24.2805 10.501 24.2805 10.501L24.307 21.3526H47.022V24.6106H15.2849C15.2849 24.6106 0.0532227 22.8577 0.0532227 47.228C0.0532227 71.599 13.3478 70.7347 13.3478 70.7347H21.282V59.4256C21.282 59.4256 20.8543 45.9356 34.3644 45.9356H56.8936C56.8936 45.9356 69.5512 46.1432 69.5512 33.5227V12.6555C69.5512 12.6555 71.4736 0.026825 46.5976 0.026825ZM34.0725 7.32431C34.6093 7.32382 35.1409 7.43074 35.6369 7.63894C36.1329 7.84715 36.5836 8.15256 36.9631 8.53769C37.3427 8.92282 37.6436 9.38012 37.8488 9.88342C38.054 10.3867 38.1594 10.9261 38.1589 11.4708C38.1594 12.0154 38.054 12.5549 37.8488 13.0581C37.6436 13.5614 37.3427 14.0187 36.9631 14.4039C36.5836 14.789 36.1329 15.0944 35.6369 15.3026C35.1409 15.5108 34.6093 15.6177 34.0725 15.6172C33.5357 15.6177 33.0041 15.5108 32.5081 15.3026C32.0121 15.0944 31.5615 14.789 31.1819 14.4039C30.8023 14.0187 30.5014 13.5614 30.2962 13.0581C30.091 12.5549 29.9856 12.0154 29.9861 11.4708C29.9856 10.9261 30.091 10.3867 30.2962 9.88342C30.5014 9.38012 30.8023 8.92282 31.1819 8.53769C31.5615 8.15256 32.0121 7.84715 32.5081 7.63894C33.0041 7.43074 33.5357 7.32382 34.0725 7.32431V7.32431Z" fill="url(#paint0_linear_39_759)"/>
<path d="M47.2736 94.6744C71.0769 94.6744 69.5907 84.2002 69.5907 84.2002L69.5642 73.3489H46.8488V70.091H78.5859C78.5859 70.091 93.8176 71.8438 93.8176 47.4728C93.8176 23.1021 80.523 23.9664 80.523 23.9664H72.5888V35.2752C72.5888 35.2752 73.0166 48.7652 59.5064 48.7652H36.9772C36.9772 48.7652 24.3196 48.5577 24.3196 61.1785V82.0461C24.3196 82.0461 22.3975 94.6744 47.2733 94.6744H47.2736ZM59.7987 87.3776C59.2619 87.3781 58.7303 87.2712 58.2343 87.063C57.7383 86.8548 57.2876 86.5494 56.9081 86.1643C56.5285 85.7791 56.2275 85.3218 56.0223 84.8185C55.8172 84.3152 55.7118 83.7758 55.7123 83.2312C55.7117 82.6865 55.8171 82.147 56.0222 81.6437C56.2274 81.1403 56.5284 80.683 56.9079 80.2978C57.2875 79.9127 57.7382 79.6072 58.2342 79.399C58.7303 79.1908 59.2619 79.0838 59.7987 79.0843C60.3355 79.0838 60.8671 79.1907 61.3631 79.3989C61.8591 79.6072 62.3097 79.9126 62.6893 80.2977C63.0688 80.6828 63.3698 81.1401 63.575 81.6434C63.7802 82.1467 63.8856 82.6861 63.8851 83.2308C63.8856 83.7754 63.7802 84.3149 63.575 84.8182C63.3698 85.3214 63.0688 85.7787 62.6893 86.1639C62.3097 86.549 61.8591 86.8544 61.3631 87.0626C60.8671 87.2708 60.3355 87.3778 59.7987 87.3773V87.3776Z" fill="url(#paint1_linear_39_759)"/>
<defs>
<linearGradient id="paint0_linear_39_759" x1="9.06393" y1="8.5398" x2="56.2016" y2="54.5313" gradientUnits="userSpaceOnUse">
<stop stop-color="#ACACAC"/>
<stop offset="1" stop-color="#ACACAC"/>
</linearGradient>
<linearGradient id="paint1_linear_39_759" x1="37.5853" y1="38.5144" x2="88.1718" y2="85.6428" gradientUnits="userSpaceOnUse">
<stop stop-color="#C6C6C6"/>
<stop offset="1" stop-color="#C6C6C6"/>
<stop offset="1" stop-color="#C6C6C6"/>
</linearGradient>
</defs>
</svg>
