<svg width="131" height="147" viewBox="0 0 131 147" fill="none" xmlns="http://www.w3.org/2000/svg">
<path d="M131 73.5131C131 64.967 120.132 56.8679 103.47 51.8454C107.315 35.1213 105.606 21.8156 98.0764 17.5557C96.3408 16.5564 94.3114 16.0831 92.0952 16.0831V21.9471C93.3235 21.9471 94.3115 22.1837 95.1392 22.6308C98.7707 24.6818 100.346 32.4917 99.1178 42.5367C98.8241 45.0085 98.3435 47.6118 97.756 50.2677C92.5224 49.0055 86.8082 48.0325 80.8002 47.4014C77.1955 42.5367 73.4572 38.119 69.6922 34.2535C78.3971 26.2859 86.5679 21.9208 92.1219 21.9208V16.0568C84.7788 16.0568 75.1661 21.2108 65.4466 30.1514C55.7271 21.2634 46.1144 16.162 38.7713 16.162V22.026C44.2986 22.026 52.4961 26.3648 61.201 34.2798C57.4627 38.1453 53.7244 42.5367 50.1731 47.4014C44.1384 48.0325 38.4242 49.0055 33.1906 50.2939C32.5764 47.6644 32.1225 45.1137 31.8021 42.6682C30.5471 32.6232 32.0958 24.8133 35.7006 22.736C36.5016 22.2626 37.543 22.0523 38.7713 22.0523V16.1883C36.5283 16.1883 34.499 16.6616 32.7366 17.6609C25.2334 21.9208 23.5512 35.2002 27.423 51.8717C10.8143 56.9205 0 64.9933 0 73.5131C0 82.0593 10.8677 90.1584 27.5298 95.1809C23.6847 111.905 25.3936 125.211 32.9236 129.471C34.6592 130.47 36.6885 130.943 38.9315 130.943C46.2746 130.943 55.8873 125.789 65.6068 116.849C75.3263 125.737 84.9391 130.838 92.2821 130.838C94.5251 130.838 96.5544 130.365 98.3168 129.365C105.82 125.105 107.502 111.826 103.63 95.1546C120.186 90.1321 131 82.033 131 73.5131V73.5131ZM96.234 55.9738C95.246 59.366 94.0177 62.8633 92.6292 66.3607C91.5344 64.257 90.3863 62.1533 89.1313 60.0497C87.903 57.946 86.5946 55.8949 85.2862 53.8965C89.0779 54.4487 92.736 55.1324 96.234 55.9738ZM84.0045 83.9789C81.9217 87.5288 79.7856 90.8947 77.5693 94.0239C73.5907 94.3657 69.5587 94.5498 65.5 94.5498C61.468 94.5498 57.436 94.3657 53.4841 94.0501C51.2678 90.9209 49.105 87.5814 47.0222 84.0577C44.9929 80.613 43.1504 77.1157 41.4682 73.592C43.1237 70.0684 44.9929 66.5447 46.9955 63.1C49.0783 59.5501 51.2144 56.1842 53.4307 53.055C57.4093 52.7132 61.4413 52.5291 65.5 52.5291C69.532 52.5291 73.564 52.7132 77.5159 53.0287C79.7322 56.1579 81.895 59.4975 83.9778 63.0211C86.0071 66.4659 87.8496 69.9632 89.5318 73.4868C87.8496 77.0105 86.0071 80.5341 84.0045 83.9789ZM92.6292 80.5604C94.0711 84.084 95.2994 87.6077 96.3141 91.0261C92.8162 91.8676 89.1313 92.5776 85.3129 93.1298C86.6213 91.105 87.9297 89.0276 89.158 86.8977C90.3863 84.794 91.5344 82.6641 92.6292 80.5604ZM65.5534 108.618C63.0701 106.094 60.5868 103.28 58.1303 100.203C60.5334 100.309 62.99 100.387 65.4733 100.387C67.9833 100.387 70.4666 100.335 72.8965 100.203C70.4933 103.28 68.01 106.094 65.5534 108.618ZM45.6871 93.1298C41.8954 92.5776 38.2373 91.8939 34.7393 91.0524C35.7273 87.6603 36.9556 84.1629 38.3441 80.6656C39.4388 82.7693 40.587 84.8729 41.842 86.9766C43.097 89.0802 44.3787 91.1313 45.6871 93.1298ZM65.4199 38.4082C67.9032 40.9326 70.3865 43.7463 72.843 46.8229C70.4399 46.7177 67.9833 46.6388 65.5 46.6388C62.99 46.6388 60.5067 46.6914 58.0769 46.8229C60.48 43.7463 62.9633 40.9326 65.4199 38.4082ZM45.6604 53.8965C44.352 55.9212 43.0436 57.9986 41.8153 60.1286C40.587 62.2322 39.4388 64.3359 38.3441 66.4396C36.9022 62.9159 35.6739 59.3923 34.6592 55.9738C38.1572 55.1587 41.842 54.4487 45.6604 53.8965V53.8965ZM21.4951 86.8188C12.0426 82.8481 5.92784 77.6416 5.92784 73.5131C5.92784 69.3847 12.0426 64.1518 21.4951 60.2075C23.7915 59.2345 26.3015 58.3668 28.8916 57.5516C30.4136 62.7056 32.4162 68.0699 34.8995 73.5657C32.4429 79.0353 30.467 84.3733 28.9717 89.501C26.3282 88.6858 23.8182 87.7917 21.4951 86.8188ZM35.8608 124.395C32.2293 122.344 30.6539 114.535 31.8822 104.49C32.1759 102.018 32.6565 99.4145 33.244 96.7586C38.4776 98.0208 44.1918 98.9938 50.1998 99.6249C53.8045 104.49 57.5428 108.907 61.3078 112.773C52.6029 120.74 44.4321 125.105 38.8781 125.105C37.6765 125.079 36.6618 124.843 35.8608 124.395V124.395ZM99.1979 104.358C100.453 114.403 98.9042 122.213 95.2994 124.29C94.4984 124.764 93.457 124.974 92.2287 124.974C86.7014 124.974 78.5039 120.635 69.799 112.72C73.5373 108.855 77.2756 104.463 80.827 99.5986C86.8616 98.9675 92.5758 97.9945 97.8094 96.706C98.4236 99.3619 98.9042 101.913 99.1979 104.358V104.358ZM109.478 86.8188C107.182 87.7917 104.672 88.6595 102.082 89.4747C100.56 84.3207 98.5571 78.9564 96.0738 73.4605C98.5304 67.991 100.506 62.653 102.002 57.5253C104.645 58.3405 107.155 59.2345 109.505 60.2075C118.957 64.1781 125.072 69.3847 125.072 73.5131C125.045 77.6416 118.931 82.8744 109.478 86.8188V86.8188Z" fill="#ACACAC"/>
<path d="M65.4733 85.5303C72.2127 85.5303 77.6761 80.15 77.6761 73.5131C77.6761 66.8762 72.2127 61.496 65.4733 61.496C58.7339 61.496 53.2705 66.8762 53.2705 73.5131C53.2705 80.15 58.7339 85.5303 65.4733 85.5303Z" fill="#ACACAC"/>
</svg>
